<svg aria-hidden="true" style="width:0;height:0;position:absolute;overflow:hidden" xmlns="http://www.w3.org/2000/svg"><defs><symbol id="icon-untitled" viewBox="0 0 44 32"><path fill="#df3d3a" style="fill:var(--color1,#df3d3a)" d="M0 15.411V0h17.875v11.603C17.875 23.69 11.917 30.489 0 32v-6.345c3.011-.786 5.069-1.934 6.173-3.446 1.167-1.51 1.874-3.776 2.12-6.798H0zm25.645 0V0H43.52v11.603c0 12.087-5.958 18.886-17.875 20.397v-6.345c3.009-.786 5.069-1.934 6.173-3.446 1.167-1.51 1.874-3.776 2.12-6.798h-8.294z"/></symbol><symbol id="icon-arrow" viewBox="0 0 31 32"><path fill="none" stroke="#df3d3a" style="stroke:var(--color1,#df3d3a)" stroke-width="2.783" d="M1.391 29.782 29.217 1.956m0 0H1.391m27.826 0v27.826"/></symbol><symbol id="icon-bose-logo-2" viewBox="0 0 246 32"><path fill="#e7e7e7" style="fill:var(--color2,#e7e7e7)" d="M199.402 6.1h42.555l4.199-4.881h-60.938l-16.911 29.514h39.495l2.836-4.881h-22.582l4.313-7.434h22.582l2.725-4.881H195.2l4.199-7.436zm-32.566 7.434h-16.798l2.725-4.763c1.132-1.974 2.156-2.671 3.857-2.671 1.703 0 2.27 1.393 1.361 3.136h17.137l1.701-3.136c1.248-2.324 1.248-4.881-1.814-4.881h-30.186c-2.725 0-4.881.35-6.469 3.02l-5.334 9.3c-1.477 2.671-1.361 4.879 2.27 4.879h17.361l-2.836 5.113c-.795 1.393-1.817 2.324-4.199 2.324-2.043 0-1.927-1.393-1.022-2.789h-17.022l-2.043 3.486c-1.248 2.208-.226 4.185 2.725 4.185h29.957c2.725 0 5.108-1.28 6.469-3.604l5.108-8.714c1.135-2.208.566-4.879-2.951-4.879z"/><path fill="#e7e7e7" style="fill:var(--color2,#e7e7e7)" d="M239.737 6.959c-1.383 0-2.508 1.115-2.508 2.476l-.001.079a2.503 2.503 0 1 0 5.006 0l-.001-.082v.004c0-1.361-1.118-2.476-2.496-2.476zm0 4.495h-.027a2.006 2.006 0 0 1-2.006-2.006v-.013.001c0-1.1.903-1.989 2.033-1.989a2.004 2.004 0 1 1 0 4.008zM128.135 1.218h-25.647c-3.52 0-8.057 0-10.782 4.881L80.358 25.85c-1.588 2.673-.226 4.879 2.725 4.879h29.844c3.065 0 4.994-.928 7.377-4.879l11.348-19.751c1.477-2.558-.795-4.881-3.52-4.881zM113.723 8.77l-8.512 14.757c-1.132 2.092-2.154 2.324-4.766 2.324-2.609 0-3.291-.93-2.496-2.324l8.623-14.757c1.25-2.206 2.725-2.671 4.881-2.671s3.404.697 2.27 2.671zM83.198 1.218H50.287L36.104 25.851H4.783L0 30.73h67.99c4.199 0 5.563-2.092 6.469-3.717l3.404-6.043c.908-1.625.908-3.486-.908-4.529 1.822 0 4.313-1.28 5.787-3.951l3.404-5.925c1.706-2.905-.337-5.346-2.946-5.346zm-16.911 19.87-1.696 2.789c-.455.928-1.25 1.974-3.18 1.974h-8.396l4.315-7.434h8.167c1.477 0 1.477 1.393.795 2.671zM73.438 8.77l-1.703 2.789c-.453.93-1.248 1.977-3.175 1.977h-8.399L64.474 6.1h8.172c1.474 0 1.474 1.393.793 2.671z"/><path fill="#e7e7e7" style="fill:var(--color2,#e7e7e7)" d="M241.017 8.788c0-.234-.101-.48-.308-.601a1.33 1.33 0 0 0-.689-.135h.004-1.218v2.789h.414V9.556h.49l.798 1.285h.478l-.849-1.285c.497-.015.881-.219.881-.768zm-1.342.421h-.455v-.837h.724c.35 0 .66.049.66.409 0 .5-.537.428-.928.428z"/></symbol><symbol id="icon-close-large" viewBox="0 0 32 32"><path fill="#fff" style="fill:var(--color3,#fff)" opacity=".8" d="M24.121 7.152a1.332 1.332 0 0 1 0 1.886l-6.599 6.6 6.6 6.6a1.334 1.334 0 1 1-1.887 1.886l-6.599-6.6-6.6 6.6a1.333 1.333 0 0 1-1.884-1.886l6.6-6.6-6.6-6.6a1.333 1.333 0 0 1 1.886-1.884l6.6 6.598 6.6-6.599c.241-.241.574-.39.942-.39s.701.149.942.39z"/></symbol><symbol id="icon-hamburger" viewBox="0 0 54 32"><path fill="#fff" style="fill:var(--color3,#fff)" opacity=".8" d="M54.154 30.823H0v-4.785h54.154v4.785zm0-11.963H0v-4.785h54.154v4.785zm0-11.963H0V2.109h54.154v4.788z"/></symbol><symbol id="icon-policy-icon" viewBox="0 0 38 32"><path fill="none" stroke="#df3d3a" style="stroke:var(--color1,#df3d3a)" stroke-linecap="round" stroke-width="4.364" d="M2.909 18.909 13.37 29.37c.263.263.627.426 1.029.426.47 0 .888-.223 1.153-.568l.003-.003L35.636 2.909"/></symbol><symbol id="icon-sinusoida" viewBox="0 0 42 32"><path fill="#fff" style="fill:var(--color3,#fff)" opacity=".8" d="M1.371 31.561c-.431.116-.889.085-1.371-.097l.177-.469c.399.15.749.167 1.064.082.318-.086.622-.281.915-.589.593-.625 1.107-1.676 1.57-3.058.821-2.454 1.446-5.836 2.105-9.403v-.002l.247-1.335c.752-4.034 1.581-8.179 2.817-11.317.618-1.569 1.346-2.905 2.23-3.853.889-.952 1.947-1.519 3.208-1.519 1.141 0 2.134.528 3.001 1.412.862.881 1.612 2.126 2.278 3.597 1.332 2.942 2.361 6.854 3.284 10.743.222.936.438 1.87.651 2.79v.002c.674 2.913 1.313 5.68 2.008 7.888.457 1.453.932 2.644 1.446 3.468.362.58.72.942 1.078 1.11l.005-.014c.399.15.749.167 1.064.082.318-.086.622-.28.915-.589.593-.624 1.107-1.676 1.57-3.058.821-2.454 1.446-5.836 2.105-9.403l.001-.008.246-1.329c.751-4.034 1.581-8.179 2.817-11.317.618-1.569 1.346-2.905 2.23-3.853.889-.953 1.947-1.52 3.208-1.52 1.142 0 2.133.528 2.996 1.413.859.881 1.604 2.126 2.264 3.598 1.321 2.942 2.334 6.855 3.242 10.744.219.935.431 1.869.64 2.787l.001.005c.662 2.913 1.291 5.68 1.977 7.888.451 1.453.922 2.644 1.433 3.468.359.579.716.942 1.073 1.109l.005-.015c.398.15.751.167 1.072.082.323-.086.634-.282.935-.591.61-.625 1.147-1.679 1.637-3.061.874-2.463 1.565-5.861 2.293-9.443l.001-.006.263-1.292c.826-4.034 1.731-8.179 3.023-11.316.646-1.569 1.397-2.905 2.297-3.851.905-.952 1.971-1.518 3.232-1.518 1.141 0 2.134.528 3 1.412.863.881 1.612 2.126 2.278 3.597 1.332 2.942 2.361 6.854 3.284 10.743.222.936.438 1.871.651 2.792.674 2.913 1.313 5.679 2.008 7.887.457 1.453.932 2.644 1.446 3.468.521.835 1.035 1.219 1.55 1.219v.501c-.79 0-1.434-.588-1.975-1.455-.548-.879-1.039-2.119-1.499-3.583-.701-2.228-1.347-5.023-2.021-7.941l-.001-.004c-.888-4.274-1.111-5.206-1.337-6.136l.691 3.366c-.923-3.891-1.943-7.759-3.253-10.651-.655-1.447-1.375-2.632-2.179-3.453C72.466.947 71.594.503 70.625.503c-1.091 0-2.034.485-2.869 1.362-.84.882-1.562 2.154-2.197 3.697-1.272 3.086-2.168 7.184-2.996 11.226l-.264 1.294-.001.006c-.726 3.572-1.424 7.008-2.311 9.507-.496 1.398-1.063 2.537-1.751 3.243-.347.356-.733.611-1.166.726a2.013 2.013 0 0 1-.743.056l.009.001v.002c-.79 0-1.432-.588-1.97-1.456-.545-.879-1.031-2.119-1.485-3.583-.692-2.229-1.327-5.024-1.991-7.942l-.001-.003-.001-.004c-.208-.915-.418-1.841-.635-2.766-.908-3.891-1.913-7.759-3.211-10.652-.649-1.447-1.365-2.632-2.166-3.453C44.078.947 43.209.502 42.239.502c-1.091 0-2.023.484-2.841 1.361-.823.881-1.522 2.152-2.13 3.695-1.216 3.085-2.038 7.183-2.791 11.225l-.248 1.339c-.657 3.558-1.288 6.979-2.122 9.469-.468 1.397-1.01 2.537-1.682 3.244-.339.357-.719.613-1.148.728a1.99 1.99 0 0 1-.737.057l.009.001v.001c-.789 0-1.434-.588-1.975-1.455-.548-.879-1.038-2.119-1.499-3.583-.701-2.228-1.347-5.023-2.021-7.941-.212-.917-.427-1.846-.647-2.773-.924-3.891-1.943-7.759-3.253-10.651-.655-1.447-1.375-2.632-2.179-3.453C16.174.948 15.303.504 14.332.504c-1.091 0-2.023.484-2.841 1.361-.823.881-1.522 2.152-2.13 3.694-1.216 3.086-2.038 7.183-2.791 11.225l-.248 1.339c-.657 3.558-1.288 6.978-2.122 9.469-.468 1.397-1.01 2.537-1.683 3.244-.339.357-.719.613-1.148.728z"/></symbol></defs></svg>