<svg width="46" height="16" viewBox="0 0 46 16" fill="none" xmlns="http://www.w3.org/2000/svg">
<path d="M43.9384 0.00634766H26.5581L19.0668 12.7118H2.52576L0 15.2289H35.9077C38.125 15.2289 38.8443 14.15 39.3237 13.3112L41.1216 10.1946C41.601 9.35555 41.601 8.39668 40.6422 7.85744C41.6029 7.85744 42.9195 7.1982 43.6988 5.81972L45.4967 2.76332C46.3955 1.26483 45.3169 0.00634766 43.9384 0.00634766ZM35.0086 10.2546L34.1096 11.6929C33.8699 12.1725 33.4503 12.7118 32.4315 12.7118H27.9966L30.2754 8.8763H34.5892C35.3682 8.8763 35.3682 9.59555 35.0086 10.2546ZM38.7843 3.90199L37.8852 5.34028C37.6454 5.81972 37.226 6.35915 36.2071 6.35915H31.7722L34.0496 2.52351H38.3646C39.1439 2.52351 39.1439 3.24275 38.7843 3.90199Z" fill="#E7E7E7"/>
</svg>
